<?xml version="1.0" ?><svg viewBox="0 0 64 64" xmlns="http://www.w3.org/2000/svg" width="50px" height="50px"><title/>
<g data-name="Layer 4" id="Layer_4"><path d="M54,61V53h8a1,1,0,0,0,.82-.43,1,1,0,0,0,.12-.92l-6.77-18A26.88,26.88,0,0,0,57,27C57,14.87,48.93,5,39,5S21,14.87,21,27c0,11.72,7.54,21.33,17,22v4a5,5,0,0,0-5,4.42,4.94,4.94,0,0,0-1.53,1,4.88,4.88,0,0,0-1.53-1,5,5,0,0,0-9.94,0A5,5,0,0,0,17.11,61H13V51h9a1,1,0,0,0,.78-.37,1,1,0,0,0,.2-.83L13,1.8a1,1,0,0,0-2,0L1,49.8a1,1,0,0,0,.2.83A1,1,0,0,0,2,51h9V61H1v2H63V61ZM3.23,49,12,6.9,20.77,49H13V37.41l2.71-2.7-1.42-1.42L13,34.59V30H11V40.59l-2.29-2.3L7.29,39.71,11,43.41V49ZM54,51V46.41l2.71-2.7-1.42-1.42L54,43.59V39H52V51H45.44L53,30.85,60.56,51ZM23,27C23,16,30.18,7,39,7s16,9,16,20a24.62,24.62,0,0,1-.19,3l-.87-2.34a1,1,0,0,0-1.88,0L45.44,45.3A13.25,13.25,0,0,1,40,46.94V32.41l3.71-3.7-1.42-1.42L40,29.59V26H38v9.59l-2.29-2.3-1.42,1.42L38,38.41v8.53C29.64,46.29,23,37.61,23,27ZM40,49a14.82,14.82,0,0,0,4.44-1l-1.38,3.68a1,1,0,0,0,.12.92A1,1,0,0,0,44,53h8v8H45.89A5,5,0,0,0,43,57.42a5,5,0,0,0-3-4ZM34.26,59.11a1,1,0,0,0,.75-1A.5.5,0,0,0,35,58a3,3,0,0,1,6-.07s0,.14,0,.18a1,1,0,0,0,.75,1A3,3,0,0,1,43.83,61H32.89a5.56,5.56,0,0,0-.25-.82A3,3,0,0,1,34.26,59.11Zm-13,0a1,1,0,0,0,.75-1c0-.06,0-.12,0-.11a3,3,0,0,1,6-.07s0,.14,0,.18a1,1,0,0,0,.75,1A3,3,0,0,1,30.83,61H19.17A3,3,0,0,1,21.26,59.11Z"/></g></svg>