<?xml version="1.0" encoding="UTF-8" standalone="no"?>
<!-- Created with Inkscape (http://www.inkscape.org/) -->

<svg
   width="40pt"
   height="40pt"
   viewBox="0 0 22.577778 22.577778"
   version="1.1"
   id="svg831"
   inkscape:version="1.1.1 (3bf5ae0d25, 2021-09-20)"
   sodipodi:docname="Export - Unblash - 64px.svg"
   inkscape:export-filename="C:\Users\User\Desktop\CARLOS PROJECT\2. FEBRUARI 1\DONE\13 - Pineapple.png"
   inkscape:export-xdpi="576"
   inkscape:export-ydpi="576"
   xmlns:inkscape="http://www.inkscape.org/namespaces/inkscape"
   xmlns:sodipodi="http://sodipodi.sourceforge.net/DTD/sodipodi-0.dtd"
   xmlns="http://www.w3.org/2000/svg"
   xmlns:svg="http://www.w3.org/2000/svg"
   xmlns:rdf="http://www.w3.org/1999/02/22-rdf-syntax-ns#"
   xmlns:cc="http://creativecommons.org/ns#"
   xmlns:dc="http://purl.org/dc/elements/1.1/">
  <defs
     id="defs825">
    <pattern
       id="EMFhbasepattern"
       patternUnits="userSpaceOnUse"
       width="6"
       height="6"
       x="0"
       y="0" />
    <pattern
       id="EMFhbasepattern-9"
       patternUnits="userSpaceOnUse"
       width="6"
       height="6"
       x="0"
       y="0" />
    <pattern
       id="EMFhbasepattern-0"
       patternUnits="userSpaceOnUse"
       width="6"
       height="6"
       x="0"
       y="0" />
    <pattern
       id="EMFhbasepattern-7"
       patternUnits="userSpaceOnUse"
       width="6"
       height="6"
       x="0"
       y="0" />
    <pattern
       id="EMFhbasepattern-2"
       patternUnits="userSpaceOnUse"
       width="6"
       height="6"
       x="0"
       y="0" />
    <pattern
       id="EMFhbasepattern-98"
       patternUnits="userSpaceOnUse"
       width="6"
       height="6"
       x="0"
       y="0" />
    <pattern
       id="EMFhbasepattern-6"
       patternUnits="userSpaceOnUse"
       width="6"
       height="6"
       x="0"
       y="0" />
    <pattern
       id="EMFhbasepattern-01"
       patternUnits="userSpaceOnUse"
       width="6"
       height="6"
       x="0"
       y="0" />
    <pattern
       id="EMFhbasepattern-07"
       patternUnits="userSpaceOnUse"
       width="6"
       height="6"
       x="0"
       y="0" />
    <pattern
       id="EMFhbasepattern-8"
       patternUnits="userSpaceOnUse"
       width="6"
       height="6"
       x="0"
       y="0" />
    <pattern
       id="EMFhbasepattern-4"
       patternUnits="userSpaceOnUse"
       width="6"
       height="6"
       x="0"
       y="0" />
    <pattern
       id="EMFhbasepattern-40"
       patternUnits="userSpaceOnUse"
       width="6"
       height="6"
       x="0"
       y="0" />
    <pattern
       id="EMFhbasepattern-08"
       patternUnits="userSpaceOnUse"
       width="6"
       height="6"
       x="0"
       y="0" />
    <pattern
       id="EMFhbasepattern-04"
       patternUnits="userSpaceOnUse"
       width="6"
       height="6"
       x="0"
       y="0" />
    <pattern
       id="EMFhbasepattern-014"
       patternUnits="userSpaceOnUse"
       width="6"
       height="6"
       x="0"
       y="0" />
    <pattern
       id="EMFhbasepattern-27"
       patternUnits="userSpaceOnUse"
       width="6"
       height="6"
       x="0"
       y="0" />
    <pattern
       id="EMFhbasepattern-09"
       patternUnits="userSpaceOnUse"
       width="6"
       height="6"
       x="0"
       y="0" />
    <pattern
       id="EMFhbasepattern-5"
       patternUnits="userSpaceOnUse"
       width="6"
       height="6"
       x="0"
       y="0" />
    <pattern
       id="EMFhbasepattern-018"
       patternUnits="userSpaceOnUse"
       width="6"
       height="6"
       x="0"
       y="0" />
  </defs>
  <sodipodi:namedview
     id="base"
     pagecolor="#ffffff"
     bordercolor="#666666"
     borderopacity="1.0"
     inkscape:pageopacity="0.0"
     inkscape:pageshadow="2"
     inkscape:zoom="4.6582032"
     inkscape:cx="28.337107"
     inkscape:cy="67.515304"
     inkscape:document-units="pt"
     inkscape:current-layer="svg831"
     showgrid="false"
     units="pt"
     inkscape:window-width="1920"
     inkscape:window-height="1001"
     inkscape:window-x="-9"
     inkscape:window-y="41"
     inkscape:window-maximized="1"
     inkscape:pagecheckerboard="true"
     inkscape:showpageshadow="false"
     inkscape:object-paths="true"
     inkscape:snap-intersection-paths="true"
     inkscape:snap-smooth-nodes="true"
     inkscape:snap-midpoints="true"
     showguides="true"
     inkscape:snap-bbox="true"
     inkscape:bbox-nodes="true"
     inkscape:snap-nodes="true"
     inkscape:snap-global="true">
    <inkscape:grid
       type="xygrid"
       id="grid1378" />
    <sodipodi:guide
       position="0.97013831,21.607643"
       orientation="78.000048,0"
       id="guide1380"
       inkscape:locked="false" />
    <sodipodi:guide
       position="0.97013831,0.97013129"
       orientation="0,78.000005"
       id="guide1382"
       inkscape:locked="false" />
    <sodipodi:guide
       position="21.607639,0.97013129"
       orientation="-78.000048,0"
       id="guide1384"
       inkscape:locked="false" />
    <sodipodi:guide
       position="21.607639,21.607643"
       orientation="0,-78.000005"
       id="guide1386"
       inkscape:locked="false" />
  </sodipodi:namedview>
  <metadata
     id="metadata828">
    <rdf:RDF>
      <cc:Work
         rdf:about="">
        <dc:format>image/svg+xml</dc:format>
        <dc:type
           rdf:resource="http://purl.org/dc/dcmitype/StillImage" />
      </cc:Work>
    </rdf:RDF>
  </metadata>
  <g
     inkscape:label="Icon"
     inkscape:groupmode="layer"
     id="layer1"
     transform="translate(0,-274.42223)" />
  <path
     id="path16042"
     style="color:#000000;display:inline;fill:#000000;stroke-width:1;stroke-linecap:round;stroke-linejoin:round;-inkscape-stroke:none"
     d="M 6.9175705,1.0916723 C 6.3233496,1.9830025 6.1132226,2.6855444 6.0655042,3.5189891 6.4784259,3.6075848 6.8351846,3.7288456 7.1961695,3.8704912 7.5498485,3.7209499 7.9327193,3.6046446 8.3346432,3.5163854 8.2952169,2.6680815 8.0650467,1.9790421 7.4734648,1.0916723 c -0.1244637,-0.17974503 -0.4596703,-0.14333417 -0.5558943,0 z M 11.005408,3.9362351 C 9.9107386,3.8994804 8.8734078,4.0404981 7.9805372,4.2988027 8.357416,4.5627423 8.6673633,4.8903396 8.8807729,5.2901688 9.1509865,5.2130255 9.432761,5.1518173 9.7224246,5.1027011 10.105439,4.758496 10.54513,4.3873678 11.005408,3.9362351 Z m -7.6145744,0.0052 C 3.8349248,4.381576 4.2264631,4.7451335 4.5488379,5.0812153 5.5777443,5.2409305 6.5144361,5.557606 7.1961695,6.1272593 7.4968812,5.8776365 7.8467309,5.6767173 8.2311448,5.5160414 7.3211281,4.0455953 4.860434,3.8729688 3.3908336,3.9414425 Z M 2.3916556,5.6065156 C 3.1467622,6.3704905 4.0014561,7.0391558 4.4043298,7.9648335 4.9907549,7.6350811 5.6419235,7.4254126 6.3395433,7.371837 6.4319608,7.0965271 6.5667974,6.84677 6.7353089,6.622622 5.8492743,5.8557692 4.1060744,5.5797821 2.3916556,5.6065208 Z m 9.6083744,0.00197 C 9.807273,5.5769295 7.8865641,5.911122 7.0458016,7.358194 8.0791105,7.3214885 9.2011209,7.4850408 9.9873554,7.9622576 10.403181,7.0107392 11.24623,6.3699107 12.00003,5.6084806 Z M 7.4357112,7.9375072 c -0.2419086,-0.0011 -0.4864133,0.0039 -0.7394557,0.0039 -1.0303664,0 -1.9551874,0.379723 -2.7150302,1.0219596 C 4.511951,9.4940948 5.0426767,10.024821 5.5734024,10.555545 6.491007,9.6373017 7.3565589,8.7717334 8.1588939,7.9694022 7.9168656,7.945822 7.6776161,7.9386043 7.4357112,7.9375072 Z M 8.9341508,8.1360406 C 8.5993548,8.470834 8.2645627,8.80563 7.9297667,9.1404247 L 9.344887,10.554895 C 9.7914596,10.108176 10.238463,9.6618871 10.684499,9.2146317 10.179249,8.7188808 9.5890882,8.3459447 8.9341508,8.1360406 Z M 3.5021417,9.428787 c -0.464943,0.5134462 -0.8420649,1.15293 -1.0955154,1.728869 0.4274439,0.427444 0.8548904,0.854888 1.282333,1.282332 L 5.101476,11.02747 C 4.5683709,10.49457 4.0351461,9.9617901 3.5021417,9.428787 Z m 3.9570024,0.1822603 -1.4151229,1.4151217 1.4151229,1.41512 1.4144703,-1.41512 z m 3.6718949,0.100241 C 10.692745,10.149579 10.254453,10.587873 9.8161584,11.026166 l 1.4131706,1.413168 c 0.302646,-0.302936 0.60565,-0.605514 0.908697,-0.908046 -0.281465,-0.701002 -0.597834,-1.281447 -1.006987,-1.8199997 z m -1.786152,1.7861507 -1.4144703,1.41447 1.1560505,1.15605 h 0.5142347 l 1.1573551,-1.157353 z m -3.7727883,6.66e-4 -1.4125167,1.412518 1.415119,1.415121 1.412518,-1.413169 z m -3.4258434,0.341738 c -0.242056,0.737251 -0.389373,1.545384 -0.433519,2.395421 l 0.090479,0.09048 1.4144691,-1.41447 C 2.86054,12.554129 2.5033945,12.196987 2.1462528,11.839842 Z m 10.2208977,0.40553 c -0.607092,0.608407 -1.2158,1.215204 -1.823906,1.822603 h 2.127242 c -0.04343,-0.636828 -0.146826,-1.248094 -0.303336,-1.822603 z m -8.6788436,1.136522 -1.4144729,1.414471 1.4151228,1.415121 1.4144704,-1.41447 z m 3.7701847,0.0013 -1.4131704,1.413169 1.4131704,1.413168 0.2636246,-0.263627 v -0.946451 c -2.6e-6,-8.67e-4 -2.6e-6,-0.0018 0,-0.0026 0.00139,-0.34456 0.225381,-0.663289 0.5279066,-0.822124 z m 1.0831472,1.22505 c -0.1840578,-7e-4 -0.3338424,0.147917 -0.3345793,0.331975 v 1.527731 c 0,0.390043 0.1544604,0.76503 0.4302655,1.040837 l 0.6665524,0.666551 c 0.4433707,0.500801 0.5561374,1.110572 0.7700481,1.75686 0.133966,0.401882 0.513691,0.674363 0.937339,0.674363 0.613291,-0.0329 1.273771,-0.01753 1.801123,0.174449 l 0.912603,0.457604 c 0.513169,0.256585 1.118061,0.256585 1.631229,0 l 0.91,-0.457604 c 0.585074,-0.249319 1.155309,-0.174477 1.801124,-0.174477 0.423648,0 0.803372,-0.272453 0.937339,-0.674363 l 0.369076,-1.107231 c 0.22047,-0.561519 0.635924,-0.88458 1.067524,-1.316179 0.275819,-0.275808 0.430919,-0.650794 0.430915,-1.040837 v -1.527732 c -6.66e-4,-0.183293 -0.149327,-0.331598 -0.332623,-0.331974 h -1.623421 v 1.488676 c -6e-6,1.876603 -1.918536,3.510464 -4.376849,3.510464 -2.458314,0 -4.376851,-1.633861 -4.376851,-3.510464 v -1.488676 z m 2.2873677,0 v 1.488677 c 0,1.407631 1.547197,2.843911 3.710298,2.843911 2.163101,0 3.710294,-1.43628 3.710298,-2.843911 v -1.488677 h -1.119598 v 0.331975 c -0.08809,1.584642 -1.131629,2.336311 -2.666861,2.33228 -1.535233,-0.004 -2.500286,-0.910473 -2.511938,-2.33228 v -0.331975 z m 1.788752,0 v 0.331975 c 0,1.131567 0.656324,1.661101 1.845385,1.668331 1.189062,0.0072 1.988735,-0.608338 2.00031,-1.668331 V 14.608205 Z M 1.7055778,15.169957 C 1.740482,16.085301 1.8956175,16.954034 2.1579724,17.74178 2.5112092,17.388541 2.8644473,17.035304 3.2176867,16.682067 2.71365,16.17803 2.2096132,15.673995 1.7055778,15.169957 Z m 3.8684745,0.09763 -1.4144703,1.41447 1.4131666,1.413168 1.4144704,-1.414471 z m 2.1812638,1.587617 -1.7119448,1.710643 1.423585,1.423584 1.504298,-1.395593 -0.6483256,-0.648327 C 8.0240799,17.646662 7.8283404,17.265086 7.7553161,16.855208 Z M 3.6889593,17.15333 C 3.2661987,17.575909 2.8433549,17.998405 2.420297,18.420689 2.7123601,19.089059 3.0848239,19.6347 3.5236209,20.14305 4.0494743,19.617216 4.5755067,19.091564 5.101476,18.565847 Z m 1.8837893,1.88379 c -0.5226666,0.522293 -1.0456065,1.04431 -1.5680905,1.566788 0.5554912,0.463804 1.1978613,0.787827 1.9046222,0.926925 0.3595287,-0.359531 0.7190599,-0.719061 1.0785911,-1.078591 z m 3.719413,0.169242 c -0.9117159,0.830233 -1.7561678,1.64129 -2.5171468,2.40128 h 0.9197649 c 0.111943,0 0.2225621,-0.0042 0.3319732,-0.01301 0.7658789,-0.06171 1.4679477,-0.336004 2.0784191,-0.770701 -0.2362126,-0.1859 -0.4205803,-0.438998 -0.5200932,-0.737503 z"
     sodipodi:nodetypes="cccccccccccccccccccccccccccccsccccccccccccccccccccccccccccccccccccccccccccccccccsccccsscccccccsscsccccssscccssscccsccccscccccccccccccccccscccccccccccccssccccs" />
</svg>
